<?xml version="1.0" standalone="no"?>
<!DOCTYPE svg PUBLIC "-//W3C//DTD SVG 1.1//EN" "http://www.w3.org/Graphics/SVG/1.1/DTD/svg11.dtd" >
<svg xmlns="http://www.w3.org/2000/svg" xmlns:xlink="http://www.w3.org/1999/xlink" version="1.1">
<metadata>
Created by FontForge 20161013 at Wed Dec 14 18:25:10 2016
 By ,,,
</metadata>
<defs>
<font id="KanjiFreeVersion" horiz-adv-x="833" >
  <font-face 
    font-family="KanjiFreeVersion"
    font-weight="400"
    font-stretch="normal"
    units-per-em="1000"
    panose-1="0 0 0 0 0 0 0 0 0 0"
    ascent="750"
    descent="-250"
    x-height="732"
    cap-height="733"
    bbox="-2 -3 1071 740"
    underline-thickness="50"
    underline-position="-150"
    unicode-range="U+000D-007A"
  />
<missing-glyph horiz-adv-x="500" 
 />
    <glyph glyph-name=".notdef" horiz-adv-x="500" 
 />
    <glyph glyph-name=".null" horiz-adv-x="0" 
 />
    <glyph glyph-name="nonmarkingreturn" unicode="&#xd;" horiz-adv-x="500" 
 />
    <glyph glyph-name="NULL" horiz-adv-x="0" 
 />
    <glyph glyph-name="NULL" horiz-adv-x="0" 
 />
    <glyph glyph-name="space" unicode=" " horiz-adv-x="500" 
 />
    <glyph glyph-name="A" unicode="A" 
d="M202 0h-69l81 142h510l82 -142h-72l-45 83h-71l46 -83h-68l-45 83l-302 1zM63 0h-63l65 127l334 606l296 -539h-525l-53 -96zM341 254h115l-57 101zM399 610l-196 -356h70l126 221l125 -221h71z" />
    <glyph glyph-name="B" unicode="B" 
d="M509 416q40 -32 63.5 -79t23.5 -103q0 -48 -18.5 -91t-50 -74.5t-74.5 -50t-91 -18.5h-362v354h362q25 0 46.5 -9.5t38 -26t26 -38t9.5 -46.5t-9.5 -46.5t-26 -38t-38 -26t-46.5 -9.5h-250v181h-53v-236h303q36 0 68 13.5t55.5 37.5t37.5 56t14 68t-14 68t-37.5 56
t-55.5 38t-68 14h-362v323h313q45 0 85 -17t70 -47t47 -70t17 -85q0 -50 -23 -98zM59 469h53v150h201q22 0 41 -8.5t33 -22.5t22.5 -33t8.5 -41q0 -28 -12 -50q14 -2 27 -6.5t26 -9.5q14 31 14 66q0 33 -12.5 62t-34.5 51t-51 34.5t-62 12.5h-254v-205zM326 469
q15 5 24 17.5t9 27.5q0 20 -13.5 33.5t-32.5 13.5h-142v-92h152h3zM171 173h191q25 0 43 17.5t18 43.5t-18 43.5t-43 17.5h-191v-122z" />
    <glyph glyph-name="C" unicode="C" 
d="M628 563q-44 54 -109 86t-141 32q-66 0 -124.5 -24.5t-102 -67t-68.5 -99t-25 -120.5t25 -120.5t68.5 -98.5t102 -66.5t124.5 -24.5q76 0 141 32t109 86l46 -36h1q-52 -66 -129 -105t-168 -39q-78 0 -147 29.5t-120.5 80.5t-81.5 118.5t-30 143.5t30 143.5t81.5 118
t120.5 79.5t147 29q91 0 168 -38t129 -103l-1 -1zM378 569q-42 0 -79.5 -15.5t-65.5 -42.5t-44 -63.5t-16 -77.5t16 -77t44 -63t65.5 -42.5t79.5 -15.5q49 0 90.5 20.5t69.5 54.5l47 -36q-36 -45 -90 -71.5t-117 -26.5q-55 0 -103 20t-84 55t-56.5 82t-20.5 100t20.5 100
t56.5 82t84 55.5t103 20.5q63 0 117 -26.5t90 -71.5l-47 -37q-29 35 -70 55.5t-90 20.5z" />
    <glyph glyph-name="D" unicode="D" 
d="M304 734q76 0 142.5 -29t116.5 -78.5t79 -116.5t29 -143t-29 -142.5t-79 -116.5t-116.5 -79t-142.5 -29h-304v59h304q64 0 120 24t98 66t66 98t24 120t-24 120t-66 98t-98 66.5t-120 24.5h-246v-504h53v449h193q52 0 98.5 -20t81 -54.5t54.5 -81t20 -98.5q0 -53 -20 -99
t-54.5 -80t-81 -54t-98.5 -20h-304v58v562h304zM170 172h134q40 0 76 15.5t62 42t41.5 62t15.5 75.5t-15.5 76t-41.5 62t-62 41.5t-76 15.5h-134v-390z" />
    <glyph glyph-name="E" unicode="E" 
d="M0 0v59h491v-59h-491zM0 732v1h491v-59h-432v-235h53v182h379v-59h-320v-123h136v-58h-307v293v58zM171 268v-95h320v-59h-491v213h307v-59h-136zM112 173v95h-53v-95h53z" />
    <glyph glyph-name="F" unicode="F" 
d="M0 0v254h307v-59h-136v-195h-59v195h-53v-195h-59zM492 674h-433v-308h53v254h380v-59h-321v-195h136v-59h-307v425h27v1h465v-59z" />
    <glyph glyph-name="G" unicode="G" 
d="M674 393v-50v-12v-190h-3l1 -1l2 1q-26 -33 -59 -59v59v21v169h-211v62h270zM569 191h-1v-71v-47v-23q-42 -24 -90 -37.5t-101 -13.5q-78 0 -146.5 29t-119.5 79t-80.5 116.5t-29.5 142.5t29.5 143t80.5 116.5t119.5 78.5t146.5 29q77 0 144.5 -27.5t118.5 -76.5l-41 -42
q-43 41 -99.5 64.5t-122.5 23.5t-123.5 -24.5t-100.5 -66.5t-68 -98t-25 -120t25 -120t68 -98t100.5 -66t123.5 -24q71 0 134 29v59q-29 -17 -63 -26.5t-71 -9.5q-54 0 -101.5 20t-83.5 55t-56.5 81.5t-20.5 99.5t20.5 99.5t56.5 81.5t83.5 55t101.5 20t101.5 -19.5
t83.5 -54.5l-41 -42q-28 26 -65 41.5t-79 15.5t-79 -15.5t-64.5 -42t-43.5 -62.5t-16 -77t16 -76.5t43.5 -62.5t64.5 -42.5t79 -15.5q39 0 73 13t61 36v4h-107v62h107h57v-62v-21v-9z" />
    <glyph glyph-name="H" unicode="H" 
d="M0 0v733h59v-733h-59zM538 733h59v-424h-485v424h59v-365h254v365h59v-365h54v365zM112 1v254h485v-255h-59v196h-54v-195h-59v195h-254v-195h-59z" />
    <glyph glyph-name="I" unicode="I" 
d="M59 0h-59v733h59v-733v0zM172 0h-59v733h59v-733v0z" />
    <glyph glyph-name="J" unicode="J" 
d="M442 737v-59h-332v59h332zM110 625h332v-58v-345q0 -91 -65 -156q-31 -32 -71 -48.5t-85 -16.5q-46 0 -86 17.5t-70 47.5t-47.5 70t-17.5 86h58q0 -34 13 -63.5t35 -51.5t51.5 -34.5t63.5 -12.5t63.5 12.5t51.5 34.5t34.5 51.5t12.5 63.5v345h-53v-345q0 -23 -8.5 -43
t-23.5 -35t-35 -23.5t-43 -8.5t-43 8.5t-35 23.5t-23.5 35t-8.5 43h59q0 -21 15 -36t36 -15q22 0 37 15t15 36v345h-162v58z" />
    <glyph glyph-name="K" unicode="K" 
d="M386 733h68l-400 -733h-54v733h59v-600l54 98v502h59v-394zM582 733l-203 -372l197 -361h-67l-164 300l-30 -56l133 -244h-67l-100 182l-99 -182h-67l400 733h67z" />
    <glyph glyph-name="L" unicode="L" 
d="M174 172h279v-59h-453v620h59v-561h56v561h59v-561zM0 0v59h453v-59h-453z" />
    <glyph glyph-name="M" unicode="M" 
d="M112 361v88l320 -357l-40 -44l-222 248v-296h-58v155v206zM393 301l393 432v-733h-59v417l-52 -58v-359h-59v295l-148 -163l-409 450v-67v-7v-88v-265v-155h-59v733zM727 504v78l-295 -324l36 -39z" />
    <glyph glyph-name="N" unicode="N" 
d="M113 507l561 -433v-75l-502 388v-387h-59v507zM615 733h59v-395v-122v-75l-615 474v-615h-59v735l502 -387v385h59v-430l54 -42v472z" />
    <glyph glyph-name="O" unicode="O" 
d="M348 -1q-73 6 -136.5 36.5t-110.5 80t-74 113.5t-27 137q0 72 27 136.5t74 113.5t110.5 80t136.5 36v-59q-61 -5 -113.5 -31.5t-91.5 -67.5t-61.5 -94.5t-22.5 -113.5t22.5 -114t61.5 -95t91.5 -67.5t113.5 -31.5v-59zM407 732q73 -5 136.5 -36t110.5 -80t74 -113.5
t27 -136.5q0 -73 -27 -137t-74 -113.5t-110.5 -80t-136.5 -36.5v59q60 5 113 31.5t92 67.5t61.5 95t22.5 114t-22.5 113.5t-61.5 94.5t-92 67.5t-113 31.5v59zM407 620q49 -5 91.5 -27t74 -56t49.5 -78t18 -93q0 -50 -18 -94t-49.5 -78t-74 -56t-91.5 -27v59q37 5 68.5 22.5
t55 43.5t37 59t13.5 71q0 37 -13.5 70t-37 59t-55 43.5t-68.5 22.5v59zM348 111q-49 5 -91.5 27t-74 56t-49.5 78t-18 94q0 49 18 93t49.5 78t74 56t91.5 27v-59q-37 -5 -69 -22.5t-55 -43.5t-36.5 -59t-13.5 -70q0 -38 13.5 -71t36.5 -59t55 -43.5t69 -22.5v-59z" />
    <glyph glyph-name="P" unicode="P" 
d="M286 732q67 0 126 -25.5t103.5 -70t70 -104t25.5 -126.5t-25.5 -126t-70 -103.5t-103.5 -70t-126 -25.5h-116v-82h-59v82h-53v-82h-58v140h286q55 0 103.5 21t85 57.5t57.5 85t21 103.5t-21 103.5t-57.5 85t-85 57.5t-103.5 21h-228v-422h53v369h175q44 0 83 -17t68 -46
t46 -68t17 -83t-17 -83t-46 -68t-68 -45.5t-83 -16.5h-286v539h286zM170 251h116q32 0 60 12.5t49 33.5t33.5 49t12.5 60t-12.5 60.5t-33.5 49.5t-49 33t-60 12h-116v-310z" />
    <glyph glyph-name="Q" unicode="Q" 
d="M737 368q0 -66 -21 -123.5t-59 -105.5l76 -139h-68l-51 93l-29 54l-29 53l-31 57q22 29 31 67q5 23 5 44q0 40 -15 75t-41 61t-61 41t-75 15t-75 -15t-61 -41t-41 -61t-15 -75t15 -75t41 -61t61 -41t75 -15q36 0 66 12q30 11 51 28l29 -53l28 -50l28 -53l33 -60h-67
l-18 32q-69 -32 -150 -32q-76 0 -143 29t-117 79t-79 117t-29 143t29 143t79 117t117 79t143 29t143.5 -29t117 -79t78.5 -117t29 -143zM626 196q25 37 38.5 80.5t13.5 91.5q0 64 -24 120t-66 98t-98.5 66.5t-120.5 24.5t-120 -24.5t-98 -66.5t-66 -98t-24 -120t24 -120
t66 -98t98 -66.5t120 -24.5t122 25l-27 51q-44 -18 -95 -18q-52 0 -97.5 19.5t-79.5 53.5t-54 80t-20 98t20 98t54 80t79.5 53.5t97.5 19.5t98 -19.5t80 -53.5t53.5 -80t19.5 -98q0 -61 -26 -113z" />
    <glyph glyph-name="R" unicode="R" 
d="M611 407q0 -75 -30.5 -138.5t-83.5 -108.5l81 -160h-66l-64 125q-11 -6 -21.5 -11t-21.5 -9l53 -105h-65l-45 88q-30 -6 -62 -6h-116v-82h-59v82h-53v-82h-58v140h286q55 0 103.5 21t85 57.5t57.5 85t21 103.5t-21 103.5t-57.5 85t-85 57.5t-103.5 21h-228v-422h53v369
h175q44 0 83 -17t68 -46t46 -68t17 -83t-17 -83t-46 -68t-68 -46t-83 -17l-286 1v539h286q67 0 126 -25.5t103.5 -70t70 -104t25.5 -126.5zM170 252h116q32 0 60 12.5t49 33.5t33.5 49t12.5 60t-12.5 60.5t-33.5 49.5t-49 33t-60 12h-116v-310z" />
    <glyph glyph-name="S" unicode="S" 
d="M343 445q48 -18 87.5 -39.5t67.5 -49t43.5 -63t15.5 -82.5q0 -100 -81 -158q-73 -53 -191 -53q-62 0 -109 13t-81.5 33.5t-57.5 44.5t-37 45l49 32q23 -36 54 -57.5t63.5 -33t63.5 -15t55 -3.5q48 0 88 10.5t69 31.5q56 41 56 110q0 31 -9 55.5t-30 46t-54.5 40.5
t-82.5 38l-49 19q-26 10 -48.5 20.5t-40 25.5t-27.5 34.5t-10 47.5q0 45 34.5 72.5t91.5 27.5q52 0 85.5 -16.5t58.5 -54.5l-49 -32q-14 23 -36.5 34t-57.5 11q-22 0 -35 -4.5t-20.5 -11.5t-10 -14t-2.5 -12q0 -11 3 -19.5t12.5 -16.5t27 -17t46.5 -20zM283 99
q-68 0 -114 22.5t-81 73.5l49 32q11 -15 23.5 -28t30 -22t40 -14t52.5 -5q9 0 25.5 1.5t33 6.5t29 15.5t12.5 28.5q0 13 -5 23.5t-17 20.5t-32.5 20.5t-51.5 22.5l-50 19q-38 15 -72.5 33.5t-61.5 44t-43 60t-16 82.5q0 43 17.5 80t49 63.5t75 41.5t94.5 15q154 0 232 -111
l-48 -33q-60 85 -184 85q-39 0 -71.5 -10.5t-56 -29t-36.5 -44.5t-13 -57q0 -29 8 -52t26.5 -42.5t48.5 -36.5t73 -34l49 -19q30 -12 56 -24.5t45.5 -28.5t31 -37.5t11.5 -51.5q0 -20 -8.5 -40t-27 -36t-49 -25.5t-74.5 -9.5z" />
    <glyph glyph-name="T" unicode="T" 
d="M656 621v-59h-242v-562h-59v562v59h59h242v0zM1 674v59h242h59v0h53v0h59v0h242v-59h-242h-59h-53v-53v-59v-562h-59v562h-242v59h242v53h-242v0z" />
    <glyph glyph-name="U" unicode="U" 
d="M589 732v-441q0 -50 -15.5 -94.5t-43.5 -81.5q-11 -16 -24.5 -29.5t-28.5 -25.5q-26 -20 -59 -36q-56 -27 -124 -27t-123 27q-33 16 -59 36q-15 12 -28.5 25.5t-24.5 29.5q-28 37 -43.5 81.5t-15.5 94.5v441h59v-265v-176q0 -43 14 -80.5t39 -68.5q13 -15 27.5 -28
t31.5 -24q27 -17 58 -26t65 -9q35 0 66 9t58 26q32 21 59 52q25 31 39 68.5t14 80.5v176v265h59zM171 157q-27 25 -43 59.5t-16 74.5v148v82v211h59v-175v-66v-66v-134q0 -26 9.5 -48.5t26.5 -39.5t39 -26.5t48 -9.5t48.5 9.5t39.5 26.5t26.5 39.5t9.5 48.5v134v66v66v175
h59v-211v-82v-148q0 -40 -16 -74.5t-43 -59.5q-24 -23 -56 -36t-68 -13q-35 0 -67 13t-56 36z" />
    <glyph glyph-name="V" unicode="V" 
d="M99 686l343 -624l-34 -61l-227 413l-139 249l-42 71h73l26 -48v0zM743 734h64l-66 -127l-232 -423l-30 -53v0l-34 61v0l-263 470h1l-13 22l-27 50h68l27 -50l18 -33h1l33 -59v0l29 -52v0l33 -60v0l26 -46v-2l28 -48l2 -5l57 101v0l32 60l58 104l35 64l15 26h68l-59 -104
l-7 -13v0l-119 -217v0l-46 -81l37 -66l67 122v0l129 234v0l14 27z" />
    <glyph glyph-name="W" unicode="W" 
d="M73 733l26 -48l342 -624l-33 -61l-227 413l-139 249l-42 71h73zM999 733h72l-42 -71l-139 -249l-227 -413l-33 61l342 624zM889 661l-263 -470v0l-34 -61v0l-29 53l-27 49l-27 -49l-30 -53v0l-34 61v0l-263 470v0l-12 22l-27 50h67l28 -50l18 -33h1l33 -59h-1l30 -52v0
l33 -60v0l26 -46v-2l27 -48l3 -4l24 42l33 58h-1l2 3l31 57l5 8l34 61l33 -61l5 -8l31 -57l2 -3h-1l33 -58l24 -42l3 4l27 48l1 2l26 46v0l33 60v0l29 52v0l33 59v0l18 33l28 50h67l-27 -50l-12 -22v0zM569 294l24 -42l37 66l-24 42l-22 39l-12 22l-36 65l-36 -65l-12 -22
l-23 -39l-23 -42l37 -66l23 42l34 61z" />
    <glyph glyph-name="X" unicode="X" 
d="M334 364l34 61l172 308h68l-206 -369l204 -364h-68l-170 303zM0 0l204 364l-206 369h68l172 -308l31 55l-141 253h68l107 -192l108 192h68l-142 -253l-34 -61l-31 -55l31 -55l34 -61l139 -248h-68l-105 188l-105 -188h-68l139 248l-31 55l-170 -303h-68z" />
    <glyph glyph-name="Y" unicode="Y" 
d="M317 155l-22 -41v81l-13 22l-282 518h68l227 -415l22 -40l30 56l-52 97l-165 302h68l183 -336l184 336h68l-165 -302l-52 -97l-7 -13l-28 -49l-27 -50l-3 -7zM695 735h68l-283 -518l-12 -22v-81v-113h-59v84l-28 -49l-18 -35h-68l52 97l7 13l27 50l28 49l3 7l34 63l22 40
z" />
    <glyph glyph-name="Z" unicode="Z" 
d="M502 561l-212 -389h306v-59h-339h-67l32 59l213 389l32 59l29 54h-60h-68h-268v59h300h68h61h67l-32 -59l-29 -54zM161 59h67h368v-59h-400h-67h-61h-68l32 59l30 54l32 59l213 389h-207v59h239h67l-32 -59l-213 -389l-32 -59l-29 -54h61z" />
    <glyph glyph-name="a" unicode="a" 
d="M133 0l81 142h510l82 -142h-72l-45 83h-71l46 -83h-68l-45 83l-302 1l-47 -84h-69zM0 0l65 127l334 606l296 -539h-525l-53 -96l-54 -98h-63zM456 254l-57 101l-58 -101h115zM203 254h70l126 221l125 -221h71l-196 356z" />
    <glyph glyph-name="b" unicode="b" 
d="M509 416q40 -32 63.5 -79t23.5 -103q0 -48 -18.5 -91t-50 -74.5t-74.5 -50t-91 -18.5h-362v354h362q25 0 46.5 -9.5t38 -26t26 -38t9.5 -46.5t-9.5 -46.5t-26 -38t-38 -26t-46.5 -9.5h-250v181h-53v-236h303q36 0 68 13.5t55.5 37.5t37.5 56t14 68t-14 68t-37.5 56
t-55.5 38t-68 14h-362v323h313q45 0 85 -17t70 -47t47 -70t17 -85q0 -50 -23 -98zM59 469h53v150h201q22 0 41 -8.5t33 -22.5t22.5 -33t8.5 -41q0 -28 -12 -50q14 -2 27 -6.5t26 -9.5q14 31 14 66q0 33 -12.5 62t-34.5 51t-51 34.5t-62 12.5h-254v-205zM326 469
q15 5 24 17.5t9 27.5q0 20 -13.5 33.5t-32.5 13.5h-142v-92h152h3zM171 173h191q25 0 43 17.5t18 43.5t-18 43.5t-43 17.5h-191v-122z" />
    <glyph glyph-name="c" unicode="c" 
d="M628 563q-44 54 -109 86t-141 32q-66 0 -124.5 -24.5t-102 -67t-68.5 -99t-25 -120.5t25 -120.5t68.5 -98.5t102 -66.5t124.5 -24.5q76 0 141 32t109 86l46 -36h1q-52 -66 -129 -105t-168 -39q-78 0 -147 29.5t-120.5 80.5t-81.5 118.5t-30 143.5t30 143.5t81.5 118
t120.5 79.5t147 29q91 0 168 -38t129 -103l-1 -1zM378 569q-42 0 -79.5 -15.5t-65.5 -42.5t-44 -63.5t-16 -77.5t16 -77t44 -63t65.5 -42.5t79.5 -15.5q49 0 90.5 20.5t69.5 54.5l47 -36q-36 -45 -90 -71.5t-117 -26.5q-55 0 -103 20t-84 55t-56.5 82t-20.5 100t20.5 100
t56.5 82t84 55.5t103 20.5q63 0 117 -26.5t90 -71.5l-47 -37q-29 35 -70 55.5t-90 20.5z" />
    <glyph glyph-name="d" unicode="d" 
d="M304 734q76 0 142.5 -29t116.5 -78.5t79 -116.5t29 -143t-29 -142.5t-79 -116.5t-116.5 -79t-142.5 -29h-304v59h304q64 0 120 24t98 66t66 98t24 120t-24 120t-66 98t-98 66.5t-120 24.5h-246v-504h53v449h193q52 0 98.5 -20t81 -54.5t54.5 -81t20 -98.5q0 -53 -20 -99
t-54.5 -80t-81 -54t-98.5 -20h-304v58v562h304zM170 172h134q40 0 76 15.5t62 42t41.5 62t15.5 75.5t-15.5 76t-41.5 62t-62 41.5t-76 15.5h-134v-390z" />
    <glyph glyph-name="e" unicode="e" 
d="M0 59h491v-59h-491v59zM0 733h491v-59h-432v-235h53v182h379v-59h-320v-123h136v-58h-307v293v58v1zM171 173h320v-59h-491v213h307v-59h-136v-95zM112 268h-53v-95h53v95z" />
    <glyph glyph-name="f" unicode="f" 
d="M0 254h307v-59h-136v-195h-59v195h-53v-195h-59v254zM59 674v-308h53v254h380v-59h-321v-195h136v-59h-307v425h27v1h465v-59h-433z" />
    <glyph glyph-name="g" unicode="g" 
d="M674 393v-50v-12v-190h-3l1 -1l2 1q-26 -33 -59 -59v59v21v169h-211v62h270zM569 191h-1v-71v-47v-23q-42 -24 -90 -37.5t-101 -13.5q-78 0 -146.5 29t-119.5 79t-80.5 116.5t-29.5 142.5t29.5 143t80.5 116.5t119.5 78.5t146.5 29q77 0 144.5 -27.5t118.5 -76.5l-41 -42
q-43 41 -99.5 64.5t-122.5 23.5t-123.5 -24.5t-100.5 -66.5t-68 -98t-25 -120t25 -120t68 -98t100.5 -66t123.5 -24q71 0 134 29v59q-29 -17 -63 -26.5t-71 -9.5q-54 0 -101.5 20t-83.5 55t-56.5 81.5t-20.5 99.5t20.5 99.5t56.5 81.5t83.5 55t101.5 20t101.5 -19.5
t83.5 -54.5l-41 -42q-28 26 -65 41.5t-79 15.5t-79 -15.5t-64.5 -42t-43.5 -62.5t-16 -77t16 -76.5t43.5 -62.5t64.5 -42.5t79 -15.5q39 0 73 13t61 36v4h-107v62h107h57v-62v-21v-9z" />
    <glyph glyph-name="h" unicode="h" 
d="M0 733h59v-733h-59v733zM597 733v-424h-485v424h59v-365h254v365h59v-365h54v365h59zM112 255h485v-255h-59v196h-54v-195h-59v195h-254v-195h-59v254z" />
    <glyph glyph-name="i" unicode="i" 
d="M59 0h-59v733h59v-733zM172 0h-59v733h59v-733z" />
    <glyph glyph-name="j" unicode="j" 
d="M442 737v-59h-332v59h332zM110 625h332v-58v-345q0 -91 -65 -156q-31 -32 -71 -48.5t-85 -16.5q-46 0 -86 17.5t-70 47.5t-47.5 70t-17.5 86h58q0 -34 13 -63.5t35 -51.5t51.5 -34.5t63.5 -12.5t63.5 12.5t51.5 34.5t34.5 51.5t12.5 63.5v345h-53v-345q0 -23 -8.5 -43
t-23.5 -35t-35 -23.5t-43 -8.5t-43 8.5t-35 23.5t-23.5 35t-8.5 43h59q0 -21 15 -36t36 -15q22 0 37 15t15 36v345h-162v58z" />
    <glyph glyph-name="k" unicode="k" 
d="M454 733l-400 -733h-54v733h59v-600l54 98v502h59v-394l214 394h68zM379 361l197 -361h-67l-164 300l-30 -56l133 -244h-67l-100 182l-99 -182h-67l400 733h67z" />
    <glyph glyph-name="l" unicode="l" 
d="M453 172v-59h-453v620h59v-561h56v561h59v-561h279zM0 59h453v-59h-453v59z" />
    <glyph glyph-name="m" unicode="m" 
d="M112 449l320 -357l-40 -44l-222 248v-296h-58v155v206v88zM786 733v-733h-59v417l-52 -58v-359h-59v295l-148 -163l-409 450v-67v-7v-88v-265v-155h-59v733l393 -432zM727 582l-295 -324l36 -39l259 285v78z" />
    <glyph glyph-name="n" unicode="n" 
d="M674 74v-75l-502 388v-387h-59v507zM674 733v-395v-122v-75l-615 474v-615h-59v735l502 -387v385h59v-430l54 -42v472h59z" />
    <glyph glyph-name="o" unicode="o" 
d="M348 -1q-73 6 -136.5 36.5t-110.5 80t-74 113.5t-27 137q0 72 27 136.5t74 113.5t110.5 80t136.5 36v-59q-61 -5 -113.5 -31.5t-91.5 -67.5t-61.5 -94.5t-22.5 -113.5t22.5 -114t61.5 -95t91.5 -67.5t113.5 -31.5v-59zM407 732q73 -5 136.5 -36t110.5 -80t74 -113.5
t27 -136.5q0 -73 -27 -137t-74 -113.5t-110.5 -80t-136.5 -36.5v59q60 5 113 31.5t92 67.5t61.5 95t22.5 114t-22.5 113.5t-61.5 94.5t-92 67.5t-113 31.5v59zM407 620q49 -5 91.5 -27t74 -56t49.5 -78t18 -93q0 -50 -18 -94t-49.5 -78t-74 -56t-91.5 -27v59q37 5 68.5 22.5
t55 43.5t37 59t13.5 71q0 37 -13.5 70t-37 59t-55 43.5t-68.5 22.5v59zM348 111q-49 5 -91.5 27t-74 56t-49.5 78t-18 94q0 49 18 93t49.5 78t74 56t91.5 27v-59q-37 -5 -69 -22.5t-55 -43.5t-36.5 -59t-13.5 -70q0 -38 13.5 -71t36.5 -59t55 -43.5t69 -22.5v-59z" />
    <glyph glyph-name="p" unicode="p" 
d="M286 732q67 0 126 -25.5t103.5 -70t70 -104t25.5 -126.5t-25.5 -126t-70 -103.5t-103.5 -70t-126 -25.5h-116v-82h-59v82h-53v-82h-58v140h286q55 0 103.5 21t85 57.5t57.5 85t21 103.5t-21 103.5t-57.5 85t-85 57.5t-103.5 21h-228v-422h53v369h175q44 0 83 -17t68 -46
t46 -68t17 -83t-17 -83t-46 -68t-68 -45.5t-83 -16.5h-286v539h286zM170 251h116q32 0 60 12.5t49 33.5t33.5 49t12.5 60t-12.5 60.5t-33.5 49.5t-49 33t-60 12h-116v-310z" />
    <glyph glyph-name="q" unicode="q" 
d="M737 368q0 -66 -21 -123.5t-59 -105.5l76 -139h-68l-51 93l-29 54l-29 53l-31 57q22 29 31 67q5 23 5 44q0 40 -15 75t-41 61t-61 41t-75 15t-75 -15t-61 -41t-41 -61t-15 -75t15 -75t41 -61t61 -41t75 -15q36 0 66 12q30 11 51 28l29 -53l28 -50l28 -53l33 -60h-67
l-18 32q-69 -32 -150 -32q-76 0 -143 29t-117 79t-79 117t-29 143t29 143t79 117t117 79t143 29t143.5 -29t117 -79t78.5 -117t29 -143zM626 196q25 37 38.5 80.5t13.5 91.5q0 64 -24 120t-66 98t-98.5 66.5t-120.5 24.5t-120 -24.5t-98 -66.5t-66 -98t-24 -120t24 -120
t66 -98t98 -66.5t120 -24.5t122 25l-27 51q-44 -18 -95 -18q-52 0 -97.5 19.5t-79.5 53.5t-54 80t-20 98t20 98t54 80t79.5 53.5t97.5 19.5t98 -19.5t80 -53.5t53.5 -80t19.5 -98q0 -61 -26 -113z" />
    <glyph glyph-name="r" unicode="r" 
d="M611 407q0 -75 -30.5 -138.5t-83.5 -108.5l81 -160h-66l-64 125q-11 -6 -21.5 -11t-21.5 -9l53 -105h-65l-45 88q-30 -6 -62 -6h-116v-82h-59v82h-53v-82h-58v140h286q55 0 103.5 21t85 57.5t57.5 85t21 103.5t-21 103.5t-57.5 85t-85 57.5t-103.5 21h-228v-422h53v369
h175q44 0 83 -17t68 -46t46 -68t17 -83t-17 -83t-46 -68t-68 -46t-83 -17l-286 1v539h286q67 0 126 -25.5t103.5 -70t70 -104t25.5 -126.5zM170 252h116q32 0 60 12.5t49 33.5t33.5 49t12.5 60t-12.5 60.5t-33.5 49.5t-49 33t-60 12h-116v-310z" />
    <glyph glyph-name="s" unicode="s" 
d="M343 445q48 -18 87.5 -39.5t67.5 -49t43.5 -63t15.5 -82.5q0 -100 -81 -158q-73 -53 -191 -53q-62 0 -109 13t-81.5 33.5t-57.5 44.5t-37 45l49 32q23 -36 54 -57.5t63.5 -33t63.5 -15t55 -3.5q48 0 88 10.5t69 31.5q56 41 56 110q0 31 -9 55.5t-30 46t-54.5 40.5
t-82.5 38l-49 19q-26 10 -48.5 20.5t-40 25.5t-27.5 34.5t-10 47.5q0 45 34.5 72.5t91.5 27.5q52 0 85.5 -16.5t58.5 -54.5l-49 -32q-14 23 -36.5 34t-57.5 11q-22 0 -35 -4.5t-20.5 -11.5t-10 -14t-2.5 -12q0 -11 3 -19.5t12.5 -16.5t27 -17t46.5 -20zM283 99
q-68 0 -114 22.5t-81 73.5l49 32q11 -15 23.5 -28t30 -22t40 -14t52.5 -5q9 0 25.5 1.5t33 6.5t29 15.5t12.5 28.5q0 13 -5 23.5t-17 20.5t-32.5 20.5t-51.5 22.5l-50 19q-38 15 -72.5 33.5t-61.5 44t-43 60t-16 82.5q0 43 17.5 80t49 63.5t75 41.5t94.5 15q154 0 232 -111
l-48 -33q-60 85 -184 85q-39 0 -71.5 -10.5t-56 -29t-36.5 -44.5t-13 -57q0 -29 8 -52t26.5 -42.5t48.5 -36.5t73 -34l49 -19q30 -12 56 -24.5t45.5 -28.5t31 -37.5t11.5 -51.5q0 -20 -8.5 -40t-27 -36t-49 -25.5t-74.5 -9.5z" />
    <glyph glyph-name="t" unicode="t" 
d="M656 621v-59h-242v-562h-59v562v59h59h242zM1 674v59h242h59v0h53v0h59v0h242v-59h-242h-59h-53v-53v-59v-562h-59v562h-242v59h242v53h-242z" />
    <glyph glyph-name="u" unicode="u" 
d="M589 732v-441q0 -50 -15.5 -94.5t-43.5 -81.5q-11 -16 -24.5 -29.5t-28.5 -25.5q-26 -20 -59 -36q-56 -27 -124 -27t-123 27q-33 16 -59 36q-15 12 -28.5 25.5t-24.5 29.5q-28 37 -43.5 81.5t-15.5 94.5v441h59v-265v-176q0 -43 14 -80.5t39 -68.5q13 -15 27.5 -28
t31.5 -24q27 -17 58 -26t65 -9q35 0 66 9t58 26q32 21 59 52q25 31 39 68.5t14 80.5v176v265h59zM171 157q-27 25 -43 59.5t-16 74.5v148v82v211h59v-175v-66v-66v-134q0 -26 9.5 -48.5t26.5 -39.5t39 -26.5t48 -9.5t48.5 9.5t39.5 26.5t26.5 39.5t9.5 48.5v134v66v66v175
h59v-211v-82v-148q0 -40 -16 -74.5t-43 -59.5q-24 -23 -56 -36t-68 -13q-35 0 -67 13t-56 36z" />
    <glyph glyph-name="v" unicode="v" 
d="M442 62l-34 -61l-227 413l-139 249l-42 71h73l26 -48zM807 734l-66 -127l-232 -423l-30 -53v0l-34 61v0l-263 470h1l-13 22l-27 50h68l27 -50l18 -33h1l33 -59v0l29 -52v0l33 -60v0l26 -46v-2l28 -48l2 -5l57 101v0l32 60l58 104l35 64l15 26h68l-59 -104l-7 -13v0
l-119 -217v0l-46 -81l37 -66l67 122v0l129 234v0l14 27l54 98h64z" />
    <glyph glyph-name="w" unicode="w" 
d="M99 685l342 -624l-33 -61l-227 413l-139 249l-42 71h73zM1071 733l-42 -71l-139 -249l-227 -413l-33 61l342 624l27 48h72zM626 191v0l-34 -61v0l-29 53l-27 49l-27 -49l-30 -53v0l-34 61v0l-263 470v0l-12 22l-27 50h67l28 -50l18 -33h1l33 -59h-1l30 -52v0l33 -60v0
l26 -46v-2l27 -48l3 -4l24 42l33 58h-1l2 3l31 57l5 8l34 61l33 -61l5 -8l31 -57l2 -3h-1l33 -58l24 -42l3 4l27 48l1 2l26 46v0l33 60v0l29 52v0l33 59v0l18 33l28 50h67l-27 -50l-12 -22zM593 252l37 66l-24 42l-22 39l-12 22l-36 65l-36 -65l-12 -22l-23 -39l-23 -42
l37 -66l23 42l34 61l33 -61z" />
    <glyph glyph-name="x" unicode="x" 
d="M368 425l172 308h68l-206 -369l204 -364h-68l-170 303l-34 61zM204 364l-206 369h68l172 -308l31 55l-141 253h68l107 -192l108 192h68l-142 -253l-34 -61l-31 -55l31 -55l34 -61l139 -248h-68l-105 188l-105 -188h-68l139 248l-31 55l-170 -303h-68z" />
    <glyph glyph-name="y" unicode="y" 
d="M295 114v81l-13 22l-282 518h68l227 -415l22 -40l30 56l-52 97l-165 302h68l183 -336l184 336h68l-165 -302l-52 -97l-7 -13l-28 -49l-27 -50l-3 -7l-34 -62zM763 735l-283 -518l-12 -22v-81v-113h-59v84l-28 -49l-18 -35h-68l52 97l7 13l27 50l28 49l3 7l34 63l22 40
l227 415h68z" />
    <glyph glyph-name="z" unicode="z" 
d="M290 172h306v-59h-339h-67l32 59l213 389l32 59l29 54h-60h-68h-268v59h300h68h61h67l-32 -59l-29 -54l-33 -59zM228 59h368v-59h-400h-67h-61h-68l32 59l30 54l32 59l213 389h-207v59h239h67l-32 -59l-213 -389l-32 -59l-29 -54h61h67z" />
  </font>
</defs>
</svg>
